<svg xmlns="http://www.w3.org/2000/svg" xmlns:xlink="http://www.w3.org/1999/xlink" version="1.1" id="Layer_1" x="0px" y="0px" width="90px" height="90px" viewBox="4.5 -9.0 90.0 121.5" enable-background="new 0 0 90 90" xml:space="preserve">
<polygon fill="none" stroke="#000000" stroke-width="5" stroke-linecap="round" stroke-linejoin="round" stroke-miterlimit="10" points="  581.331,1275.157 549.892,1275.157 540.111,1241.053 591.111,1241.053 "/>
<line fill="none" stroke="#000000" stroke-width="13.2133" stroke-linecap="round" stroke-linejoin="round" stroke-miterlimit="10" x1="545.866" y1="1235.333" x2="585.356" y2="1235.333"/>
<line fill="none" stroke="#000000" stroke-width="13.2133" stroke-linecap="round" stroke-linejoin="round" stroke-miterlimit="10" x1="550.948" y1="1225.167" x2="580.275" y2="1225.167"/>
<line fill="none" stroke="#000000" stroke-width="13.2133" stroke-linecap="round" stroke-linejoin="round" stroke-miterlimit="10" x1="557.835" y1="1214.833" x2="573.389" y2="1214.833"/>
<line fill="none" stroke="#000000" stroke-width="7" stroke-linecap="round" stroke-linejoin="round" stroke-miterlimit="10" x1="565.611" y1="1213.833" x2="565.611" y2="1198.369"/>
<g>
	<path d="M569.202,1188.469c0,1.984-1.608,3.592-3.591,3.592c-1.983,0-3.592-1.605-3.592-3.592c0-1.98,3.592-9.025,3.592-9.025   S569.202,1186.486,569.202,1188.469z"/>
</g>
<line fill="none" stroke="#000000" stroke-width="3" stroke-linecap="round" stroke-linejoin="round" stroke-miterlimit="10" x1="575.111" y1="1275.157" x2="581.22" y2="1241.053"/>
<line fill="none" stroke="#000000" stroke-width="3" stroke-linecap="round" stroke-linejoin="round" stroke-miterlimit="10" x1="556.111" y1="1275.157" x2="550.003" y2="1241.053"/>
<line fill="none" stroke="#000000" stroke-width="3" stroke-linecap="round" stroke-linejoin="round" stroke-miterlimit="10" x1="562.63" y1="1275.157" x2="559.899" y2="1241.053"/>
<line fill="none" stroke="#000000" stroke-width="3" stroke-linecap="round" stroke-linejoin="round" stroke-miterlimit="10" x1="568.592" y1="1275.157" x2="571.323" y2="1241.053"/>
<path d="M22.263,60.54H6.979c-3.231,0-5.862-2.629-5.862-5.86V14.756c0-3.231,2.631-5.862,5.862-5.862h28.49  c3.231,0,5.86,2.631,5.86,5.862V42.38c0,1.416-1.149,2.564-2.564,2.564c-1.417,0-2.566-1.149-2.566-2.564V14.756  c0-0.403-0.329-0.731-0.73-0.731H6.979c-0.401,0-0.731,0.328-0.731,0.731V54.68c0,0.403,0.33,0.731,0.731,0.731h15.284  c1.416,0,2.564,1.148,2.564,2.564C24.828,59.394,23.679,60.54,22.263,60.54z"/>
<rect x="10.97" y="21.07" width="20.507" height="3.551"/>
<rect x="10.97" y="26.663" width="20.507" height="3.555"/>
<rect x="10.97" y="32.26" width="20.507" height="3.551"/>
<rect x="58.525" y="30.218" width="20.505" height="3.55"/>
<rect x="58.525" y="35.811" width="20.505" height="3.553"/>
<rect x="58.525" y="41.406" width="20.505" height="3.552"/>
<rect x="29.377" y="50.854" width="15.379" height="3.552"/>
<rect x="29.377" y="56.448" width="15.379" height="3.553"/>
<rect x="29.377" y="62.043" width="15.379" height="3.553"/>
<path d="M83.021,65.596H54.535c-3.233,0-5.862-2.629-5.862-5.86V24.458c0-3.233,2.629-5.862,5.862-5.862h28.485  c3.233,0,5.862,2.629,5.862,5.862v35.277C88.883,62.967,86.254,65.596,83.021,65.596z M54.535,23.727  c-0.405,0-0.733,0.328-0.733,0.731v35.277c0,0.403,0.328,0.731,0.733,0.731h28.485c0.401,0,0.729-0.328,0.729-0.731V24.458  c0-0.403-0.328-0.731-0.729-0.731H54.535z"/>
<path d="M65.48,81.105H25.559c-3.233,0-5.862-2.63-5.862-5.861V46.756c0-3.231,2.629-5.86,5.862-5.86h24.667  c1.417,0,2.566,1.147,2.566,2.564s-1.149,2.564-2.566,2.564H25.559c-0.403,0-0.731,0.33-0.731,0.731v28.488  c0,0.403,0.328,0.731,0.731,0.731H65.48c0.404,0,0.732-0.328,0.732-0.731V63.597c0-1.417,1.149-2.566,2.563-2.566  c1.417,0,2.565,1.149,2.565,2.566v11.647C71.342,78.476,68.713,81.105,65.48,81.105z"/>
<text x="0.0" y="105.75" font-size="4.5" font-weight="bold" font-family="Helvetica Neue, Helvetica, Arial-Unicode, Arial, Sans-serif" fill="#000000">Created by Yazmin Alanis</text><text x="0.0" y="110.25" font-size="4.5" font-weight="bold" font-family="Helvetica Neue, Helvetica, Arial-Unicode, Arial, Sans-serif" fill="#000000">from the Noun Project</text></svg>