<?xml version="1.0" encoding="utf-8"?>
<!-- Generator: Adobe Illustrator 16.0.4, SVG Export Plug-In . SVG Version: 6.00 Build 0)  -->
<!DOCTYPE svg PUBLIC "-//W3C//DTD SVG 1.1//EN" "http://www.w3.org/Graphics/SVG/1.1/DTD/svg11.dtd">
<svg version="1.1" xmlns="http://www.w3.org/2000/svg" xmlns:xlink="http://www.w3.org/1999/xlink" x="0px" y="0px"
	 width="470.977px" height="49.497px" viewBox="0 0 470.977 49.497" enable-background="new 0 0 470.977 49.497"
	 xml:space="preserve">
<g id="Layer_1">
	<path fill="#F5F5F5" d="M253.843,8.588c0-0.479,0.432-0.912,0.912-0.912h3.168c0.527,0,0.912,0.433,0.912,0.912v13.394h17.569
		V8.588c0-0.479,0.384-0.912,0.912-0.912h3.169c0.479,0,0.912,0.433,0.912,0.912v31.779c0,0.48-0.433,0.912-0.912,0.912h-3.169
		c-0.528,0-0.912-0.432-0.912-0.912V26.494h-17.569v13.873c0,0.48-0.385,0.912-0.912,0.912h-3.168c-0.48,0-0.912-0.432-0.912-0.912
		V8.588z"/>
	<path fill="#F5F5F5" d="M286.482,40.031l14.737-32.307c0.144-0.288,0.576-0.528,0.815-0.528h0.48c0.24,0,0.672,0.24,0.816,0.528
		l14.641,32.307c0.289,0.624-0.096,1.248-0.815,1.248h-3.024c-0.576,0-0.912-0.288-1.104-0.721l-2.977-6.576h-15.697
		c-0.961,2.209-1.969,4.369-2.929,6.576c-0.144,0.337-0.528,0.721-1.104,0.721h-3.023C286.578,41.279,286.194,40.655,286.482,40.031
		z M308.228,29.854l-5.904-13.153h-0.24l-5.857,13.153H308.228z"/>
	<path fill="#F5F5F5" d="M329.585,7.916c0.097-0.384,0.48-0.72,0.865-0.72h0.768c0.288,0,0.72,0.24,0.816,0.528l10.032,24.529h0.192
		l9.984-24.529c0.096-0.288,0.48-0.528,0.816-0.528h0.768c0.385,0,0.769,0.336,0.865,0.72l5.904,32.26
		c0.143,0.672-0.193,1.104-0.865,1.104h-3.119c-0.433,0-0.816-0.336-0.912-0.672l-3.553-21.458c-0.048,0-0.145,0-0.145,0
		l-8.641,22.082c-0.096,0.288-0.384,0.528-0.816,0.528h-0.863c-0.385,0-0.721-0.24-0.816-0.528l-8.688-22.082
		c-0.048,0-0.144,0-0.192,0l-3.456,21.458c-0.048,0.336-0.479,0.672-0.864,0.672h-3.12c-0.672,0-1.008-0.432-0.912-1.104
		L329.585,7.916z"/>
	<path fill="#F5F5F5" d="M372.546,7.916c0.096-0.384,0.48-0.72,0.863-0.72h0.768c0.289,0,0.721,0.24,0.816,0.528l10.033,24.529
		h0.191l9.986-24.529c0.096-0.288,0.479-0.528,0.814-0.528h0.77c0.383,0,0.768,0.336,0.863,0.72l5.904,32.26
		c0.145,0.672-0.191,1.104-0.863,1.104h-3.121c-0.432,0-0.816-0.336-0.912-0.672l-3.553-21.458c-0.047,0-0.143,0-0.143,0
		l-8.641,22.082c-0.096,0.288-0.385,0.528-0.816,0.528h-0.865c-0.383,0-0.719-0.24-0.814-0.528l-8.689-22.082
		c-0.049,0-0.145,0-0.191,0l-3.457,21.458c-0.049,0.336-0.48,0.672-0.863,0.672h-3.121c-0.672,0-1.008-0.432-0.912-1.104
		L372.546,7.916z"/>
	<path fill="#F5F5F5" d="M410.896,8.588c0-0.479,0.385-0.912,0.912-0.912h19.203c0.527,0,0.912,0.433,0.912,0.912v2.689
		c0,0.479-0.385,0.912-0.912,0.912h-15.17v9.792h12.816c0.48,0,0.912,0.433,0.912,0.912v2.688c0,0.527-0.432,0.912-0.912,0.912
		h-12.816v10.32h15.17c0.527,0,0.912,0.433,0.912,0.912v2.641c0,0.48-0.385,0.912-0.912,0.912h-19.203
		c-0.527,0-0.912-0.432-0.912-0.912V8.588z"/>
	<path fill="#F5F5F5" d="M439.457,8.588c0-0.479,0.383-0.912,0.912-0.912h13.057c5.76,0,10.465,4.561,10.465,10.273
		c0,4.416-2.928,8.064-7.104,9.745l6.576,12.192c0.336,0.625,0,1.393-0.816,1.393h-3.744c-0.385,0-0.672-0.24-0.768-0.432
		l-6.385-12.722h-7.25v12.241c0,0.48-0.432,0.912-0.912,0.912h-3.119c-0.529,0-0.912-0.432-0.912-0.912V8.588z M453.041,23.998
		c3.121,0,5.857-2.641,5.857-5.953c0-3.12-2.736-5.712-5.857-5.712h-8.543v11.665H453.041z"/>
	<path fill="#F5F5F5" d="M13.655,7.916c0.096-0.384,0.48-0.72,0.864-0.72h0.768c0.288,0,0.72,0.24,0.816,0.528l10.033,24.529h0.192
		l9.985-24.529c0.096-0.288,0.48-0.528,0.816-0.528h0.768c0.384,0,0.768,0.336,0.864,0.72l5.905,32.26
		c0.144,0.672-0.192,1.104-0.864,1.104h-3.12c-0.432,0-0.816-0.336-0.912-0.672l-3.552-21.458c-0.048,0-0.144,0-0.144,0
		l-8.641,22.082c-0.096,0.288-0.384,0.528-0.816,0.528h-0.864c-0.384,0-0.72-0.24-0.816-0.528l-8.688-22.082
		c-0.048,0-0.144,0-0.192,0l-3.457,21.458c-0.048,0.336-0.48,0.672-0.864,0.672H8.614c-0.672,0-1.008-0.432-0.912-1.104
		L13.655,7.916z"/>
	<path fill="#F5F5F5" d="M87.381,8.061c0-0.48,0.432-0.864,0.912-0.864h1.2l20.834,24.099h0.048V8.588
		c0-0.479,0.384-0.912,0.912-0.912h3.072c0.48,0,0.912,0.433,0.912,0.912v32.308c0,0.479-0.432,0.864-0.912,0.864h-1.248
		L92.278,16.989H92.23v23.378c0,0.48-0.384,0.912-0.912,0.912h-3.024c-0.48,0-0.912-0.432-0.912-0.912V8.061z"/>
	<path fill="#F5F5F5" d="M124.869,8.588c0-0.479,0.432-0.912,0.912-0.912h3.168c0.48,0,0.912,0.433,0.912,0.912v31.779
		c0,0.48-0.432,0.912-0.912,0.912h-3.168c-0.48,0-0.912-0.432-0.912-0.912V8.588z"/>
	<path fill="#F5F5F5" d="M153.382,7.196c4.849,0,8.353,1.632,11.617,4.464c0.432,0.385,0.432,0.961,0.048,1.345l-2.112,2.16
		c-0.336,0.433-0.768,0.433-1.2,0c-2.256-1.968-5.329-3.216-8.305-3.216c-6.864,0-12.049,5.76-12.049,12.48
		s5.232,12.434,12.097,12.434c3.504,0,5.953-1.393,8.257-3.168c0.432-0.337,0.864-0.289,1.152-0.049l2.208,2.16
		c0.384,0.336,0.288,0.961-0.048,1.297c-3.264,3.168-7.393,4.656-11.665,4.656c-9.601,0-17.33-7.633-17.33-17.234
		C136.052,14.925,143.781,7.196,153.382,7.196z"/>
	<path fill="#F5F5F5" d="M168.645,40.031l14.737-32.307c0.144-0.288,0.576-0.528,0.816-0.528h0.48c0.24,0,0.672,0.24,0.816,0.528
		l14.641,32.307c0.288,0.624-0.096,1.248-0.816,1.248h-3.024c-0.576,0-0.912-0.288-1.104-0.721l-2.977-6.576h-15.697
		c-0.96,2.209-1.968,4.369-2.928,6.576c-0.144,0.337-0.528,0.721-1.104,0.721h-3.024C168.741,41.279,168.356,40.655,168.645,40.031z
		 M190.391,29.854l-5.905-13.153h-0.24l-5.857,13.153H190.391z"/>
	<path fill="#F5F5F5" d="M210.932,36.431c0.432-0.624,0.816-1.344,1.248-1.968c0.432-0.624,1.104-0.816,1.632-0.385
		c0.288,0.24,3.984,3.312,7.681,3.312c3.312,0,5.425-2.016,5.425-4.464c0-2.88-2.496-4.704-7.249-6.673
		c-4.896-2.064-8.737-4.608-8.737-10.177c0-3.744,2.88-8.881,10.513-8.881c4.801,0,8.4,2.496,8.881,2.833
		c0.384,0.239,0.768,0.911,0.287,1.631c-0.383,0.576-0.815,1.248-1.199,1.824c-0.385,0.625-1.008,0.912-1.68,0.48
		c-0.337-0.191-3.697-2.4-6.481-2.4c-4.032,0-5.424,2.545-5.424,4.32c0,2.736,2.112,4.416,6.097,6.049
		c5.569,2.256,10.321,4.896,10.321,10.753c0,4.993-4.465,9.073-10.705,9.073c-5.856,0-9.553-3.072-10.321-3.793
		C210.788,37.583,210.452,37.247,210.932,36.431z"/>
	<path fill="#F5F5F5" d="M200.231,15.838V8.108c0-0.479,0.432-0.912,0.912-0.912h2.736c0.624,0,1.056,0.528,0.864,1.2l-1.632,7.633
		c-0.096,0.384-0.528,0.72-0.864,0.72h-1.104C200.664,16.749,200.231,16.317,200.231,15.838z"/>
	<path fill="#F5F5F5" d="M65.184,7.467c-9.601,0-17.234,7.729-17.234,17.33c0,9.6,7.633,17.232,17.234,17.232
		c9.601,0,17.281-7.633,17.281-17.232C82.465,15.195,74.785,7.467,65.184,7.467z M58.668,34.417c0.11-0.149,0.224-0.296,0.354-0.427
		c2.434-2.438,4.862-4.883,7.313-7.304c0.585-0.577,1.254-0.921,2.13-0.621c0.769,0.262,1.091,0.816,1.165,1.56
		c0.057,0.585,0.32,1.058,0.723,1.459c0.476,0.475,0.855,0.497,1.417,0.121c0.893-0.601,1.647-1.342,2.278-2.209
		c0.178-0.228,0.149-0.445-0.032-0.657c-0.562-0.625-1.124-1.192-2.04-1.325c-0.604-0.088-0.977-0.604-1.141-1.198
		c-0.564-2.046-1.938-3.259-3.859-4.058c-2.295-0.953-4.585-0.967-6.935-0.358c-0.628,0.163-1.246,0.36-1.865,0.556
		c-0.65,0.203-0.742,0.697-0.207,1.129c0.559,0.449,1.208,0.674,1.942,0.568c0.573-0.082,1.142-0.191,1.72-0.233
		c0.379,0.002,0.758-0.003,1.138,0.002c0.557,0.061,1.083,0.181,1.407,0.705c0.082,0.219,0.081,0.443,0.044,0.671
		c-0.08,0.324-0.269,0.59-0.487,0.831c-2.469,2.735-5.134,5.278-7.735,7.885c-0.462,0.464-0.751,0.448-1.069-0.054
		c-2.748-4.331-2.626-10.188,0.527-14.269c2.94-3.806,7.755-5.409,12.221-4.473c1.557,0.327,3.071,0.962,4.448,1.92
		c0.392,0.272,0.771,0.556,1.126,0.874c0.087,0.077,0.172,0.156,0.256,0.235c4.142,3.953,5.068,10.06,2.511,15.093
		c-1.408,2.286-3.273,4.068-5.747,5.163c-3.78,1.675-7.893,1.243-11.44-0.728C58.442,35.059,58.41,34.766,58.668,34.417z
		 M65.196,12.268c-0.261,0-0.516,0.023-0.772,0.039c0.253-0.016,0.504-0.04,0.761-0.04C65.188,12.268,65.192,12.268,65.196,12.268z
		 M63.854,12.344c0.024-0.002,0.047-0.008,0.071-0.011C63.9,12.335,63.877,12.341,63.854,12.344z M61.705,36.722
		c1.109,0.324,2.278,0.506,3.491,0.507c-0.004,0-0.008,0.001-0.012,0.001C63.978,37.229,62.812,37.047,61.705,36.722z"/>
</g>
<g id="Layer_2">
</g>
</svg>
